# Blender v2.92.0 OBJ File: ''
# www.blender.org
mtllib ConvexHull.mtl
o Cube
v 0.366863 2.000000 -1.000000
v 1.000000 0.000000 -1.000000
v 0.366863 2.000000 1.000000
v 1.000000 0.000000 1.000000
v -1.000000 2.000000 -1.000000
v -1.000000 0.000000 -1.000000
v -1.000000 2.000000 1.000000
v -1.000000 0.000000 1.000000
v 0.071467 1.471061 -1.000000
v -1.000000 1.471061 1.000000
v 0.071467 1.471061 1.000000
v -1.000000 1.471061 -1.000000
v 0.071467 0.713456 -1.000000
v 0.071467 0.713456 1.000000
v -1.000000 0.713456 -1.000000
v -1.000000 0.713456 1.000000
vt 0.625000 0.500000
vt 0.875000 0.500000
vt 0.875000 0.750000
vt 0.625000 0.750000
vt 0.558883 0.750000
vt 0.625000 1.000000
vt 0.558883 1.000000
vt 0.558883 0.000000
vt 0.625000 0.000000
vt 0.625000 0.250000
vt 0.558883 0.250000
vt 0.125000 0.500000
vt 0.375000 0.500000
vt 0.375000 0.750000
vt 0.125000 0.750000
vt 0.558883 0.500000
vt 0.464182 0.250000
vt 0.464182 0.500000
vt 0.464182 0.750000
vt 0.464182 0.000000
vt 0.464182 1.000000
vt 0.375000 1.000000
vt 0.375000 0.000000
vt 0.375000 0.250000
vn 0.0000 1.0000 0.0000
vn 0.0000 0.0000 1.0000
vn -1.0000 0.0000 0.0000
vn 0.0000 -1.0000 0.0000
vn 0.8731 -0.4876 0.0000
vn 0.0000 0.0000 -1.0000
vn 1.0000 0.0000 0.0000
vn 0.6093 0.7930 0.0000
g Cube_Cube_Material
usemtl Material
s off
f 1/1/1 5/2/1 7/3/1 3/4/1
f 11/5/2 3/4/2 7/6/2 10/7/2
f 10/8/3 7/9/3 5/10/3 12/11/3
f 6/12/4 2/13/4 4/14/4 8/15/4
f 9/16/5 1/1/5 3/4/5 11/5/5
f 12/11/6 5/10/6 1/1/6 9/16/6
f 15/17/6 12/11/6 9/16/6 13/18/6
f 9/16/7 14/19/7 13/18/7
f 16/20/3 10/8/3 12/11/3 15/17/3
f 14/19/2 11/5/2 10/7/2 16/21/2
f 4/14/2 14/19/2 16/21/2 8/22/2
f 8/23/3 16/20/3 15/17/3 6/24/3
f 2/13/8 13/18/8 14/19/8 4/14/8
f 6/24/6 15/17/6 13/18/6 2/13/6
f 9/16/7 11/5/7 14/19/7
